#!OML:ASF F:\VICON\USERDATA\INSTALL\rory3\rory3.ASF
:FULLY-SPECIFIED
:DEGREES
44
root 0.4700511960258301 17.18578909200838 -15.651228341797788 11.005273465357211 0.18328675491683533 -2.2997662598556707
lfemur -23.861811947857777 9.581193818152867 -17.383334241532356
ltibia 32.621442654714826
lfoot -11.962717912672538 3.9603367017809448
ltoes -23.621657493630543
rfemur -25.16153325782382 -6.715664358232122 21.238682693978166
rtibia 34.133962895616854
rfoot -18.31610428519751 -2.3792862874231866
rtoes 0.8732746429837013
lowerback 4.195332812945171 0.20704160791065057 0.16197848255042285
upperback 5.477401075962932 0.13842098620966517 1.690736569961844
thorax 0.6733110744658837 0.03894093464291179 1.631345718944916
lowerneck -13.775445502897067 0.3481245226109869 -2.0693734953950598
upperneck 24.06219073339647 0.9006442938664032 0.039596665448252466
head 9.835145910075873 0.2868543152996603 0.5765531005060726
lclavicle 1.0947390651299205e-15 -2.214102160432869e-15
lhumerus -27.27394846801187 2.881164479361116 84.89269574284711
lradius 16.159252436252732
lwrist -6.185558372425276
lhand -23.379292079821283 -3.142623822879246
lfingers 7.12502
lthumb 3.0090958057695194 26.682653582675854
rclavicle 1.0940539871118203e-15 -2.215481398420625e-15
rhumerus -19.80361587770687 -14.340898187786593 -80.62217896816188
rradius 23.461276180220953
rwrist 33.011912505018174
rhand -17.863933953164214 -26.798417288550866
rfingers 7.12502
rthumb 7.924215775806545 -57.00416281157064
45
root 0.47017714175620806 17.075815869102875 -15.876533582419757 12.129954914202791 0.19519653053302555 -2.303431543140282
lfemur -26.05653433894516 9.6342283733421 -17.577638418691954
ltibia 35.26588563723482
lfoot -12.475761851547006 3.952720162385852
ltoes -24.386745870004876
rfemur -27.54471460275186 -6.922066638453723 21.518215538647343
rtibia 36.57079103689885
rfoot -19.365161394136507 -2.645627248408235
rtoes 0.12588976623325632
lowerback 4.894647424132288 0.29400145959410895 0.059648611515126126
upperback 5.270225891485447 0.2503194269287392 1.670028429036542
thorax -0.005139275185974679 0.10188333699236693 1.6382851814913624
lowerneck -14.161747320324224 0.3402805491535768 -2.053620335608305
upperneck 22.735191989080658 0.9073945577357709 -0.10309616250993003
head 9.471133967482967 0.28984343718737965 0.5353745778754437
lclavicle 1.09482120502753e-15 -2.2139969150208345e-15
lhumerus -29.228126260660083 3.342993254901984 84.27081904119768
lradius 15.69349658502443
lwrist -7.24190806466519
lhand -23.358657253372286 -3.221453730297941
lfingers 7.12502
lthumb 3.0475576764649377 26.64924325799606
rclavicle 1.0941109397785417e-15 -2.2154106114577042e-15
rhumerus -20.299398863101626 -14.710230367569295 -80.08492140962629
rradius 22.896215155205372
rwrist 33.68458331543058
rhand -17.735056794116577 -26.76911193312624
rfingers 7.12502
rthumb 7.922523225206222 -57.01709822012808
46
root 0.47227231823057264 16.950842961102772 -16.12363958547536 13.183443488915778 0.06723160853348764 -2.311242324916975
lfemur -28.261011865491962 9.743559142163733 -17.758553208579777
ltibia 38.258962342780066
lfoot -13.1186752580923 4.082436144095703
ltoes -25.022960846402547
rfemur -29.991678977853248 -7.048954175118839 21.753545272120753
rtibia 39.21942286851596
rfoot -20.51197269475066 -2.9637928372909164
rtoes -0.7314770027547564
lowerback 5.57660555491582 0.4690182301659627 -0.03846030017470298
upperback 5.039274563245475 0.48282199029783524 1.631430218031476
thorax -0.7970031102871209 0.22838530832752393 1.614921135955823
lowerneck -14.540240507999815 0.3329549163829706 -2.0395736417092545
upperneck 21.452743990013243 0.9126741651820363 -0.24278372887053568
head 9.10587961381378 0.2915759486796032 0.49614020939507286
lclavicle 1.0949677122785038e-15 -2.213814540995811e-15
lhumerus -31.183421854959704 3.8196872272115883 83.60456603635505
lradius 15.212201602316195
lwrist -8.38171611108406
lhand -23.37026137970119 -3.3318301060106883
lfingers 7.12502
lthumb 3.085983245112496 26.610856804165095
rclavicle 1.0940925881623573e-15 -2.2154330864962006e-15
rhumerus -20.92283643646446 -15.14482461805298 -79.515629277892
rradius 22.239253913765914
rwrist 34.50072561711735
rhand -17.590941680583086 -26.723826591901783
rfingers 7.12502
rthumb 7.925946367556666 -57.01112156021395
47
root 0.46669746370561244 16.810550811748662 -16.392030399741166 14.100646529200585 -0.23737351131387507 -2.3193143092956046
lfemur -30.367051262690655 9.981581839834682 -17.90826755168585
ltibia 41.44316552820821
lfoot -13.83530892513522 4.369971068396117
ltoes -25.522320182652827
rfemur -32.35127019797337 -6.9357769464256585 21.959303341889054
rtibia 41.96357102545808
rfoot -21.71362522343048 -3.3595153546261805
rtoes -1.6461899650627938
lowerback 6.249639509748366 0.7511485055495613 -0.22760873066792764
upperback 4.783459883201756 0.856105429928369 1.5707817400027992
thorax -1.6550171188559823 0.42381999889477695 1.5949545117916641
lowerneck -14.899095040610844 0.3381480918388867 -2.0288457449922124
upperneck 20.19545086848458 0.9269689985713472 -0.3542659427347248
head 8.745924220285312 0.29672301031611586 0.4647125436221936
lclavicle 1.0950441004506212e-15 -2.2137199840372864e-15
lhumerus -32.850247740503605 4.661159206476243 82.81915709981223
lradius 14.617346314072556
lwrist -9.938991400647264
lhand -23.409953386283465 -3.4530592051225257
lfingers 7.12502
lthumb 3.105095128003609 26.53792845985945
rclavicle 1.0941035806369972e-15 -2.2154189570898738e-15
rhumerus -21.602253638588156 -15.532696851041905 -79.00908741497948
rradius 21.663314081945337
rwrist 35.43998342980995
rhand -17.481745129020524 -26.693381240448677
rfingers 7.12502
rthumb 7.916036265507752 -57.00430480108924
48
root 0.4581632480219181 16.659632508195866 -16.655885173083586 15.110399687116985 -0.49138078912210104 -2.439772371045006
lfemur -32.56547405652316 10.236321611569341 -17.946521253221235
ltibia 44.80436380246911
lfoot -14.565878230057296 4.794282945239598
ltoes -25.76353390336089
rfemur -34.76264261781652 -6.798376818336548 22.28872263011265
rtibia 44.684015969007746
rfoot -22.94629963565103 -3.873491976825358
rtoes -2.494103403342981
lowerback 6.814783156770443 1.003666833404062 -0.33692985623292837
upperback 4.4154407570153245 1.2031296391865642 1.5388366377669491
thorax -2.515130317133449 0.6078181110200619 1.5560461342853287
lowerneck -15.233549031457418 0.3533282538481335 -2.0189818833792006
upperneck 18.967003426331207 0.9499397331541592 -0.4417298402081504
head 8.40664965367113 0.30649733986470384 0.441646068785445
lclavicle 1.0950755870029985e-15 -2.213682804661945e-15
lhumerus -33.93967509442082 5.95102310562843 81.96159461349276
lradius 13.78817614756567
lwrist -12.129909567623297
lhand -23.490098939343326 -3.5992959060673106
lfingers 7.12502
lthumb 3.0896259080046287 26.435382905983694
rclavicle 1.0941314867405701e-15 -2.215384140459223e-15
rhumerus -22.306760868738134 -15.816780992513253 -78.61742785463728
rradius 21.276231838669432
rwrist 36.41755989224756
rhand -17.392835604652884 -26.654204800752552
rfingers 7.12502
rthumb 7.907605257144608 -56.98125112145355
49
root 0.446881394973781 16.510725996018504 -16.921285278437697 16.377458781465517 -0.36700758741692047 -2.4578653912485686
lfemur -34.97459037360215 10.222323944941495 -18.122737385972282
ltibia 48.262347997094594
lfoot -15.261271357579734 5.252865277469867
ltoes -25.834476055024655
rfemur -37.181892099996844 -6.855666731204563 22.51326603394053
rtibia 47.240383743492025
rfoot -24.174606508035765 -4.634109308652264
rtoes -3.0907426942128993
lowerback 7.324078546343665 1.0352753271088813 -0.5039891941395355
upperback 3.862335066561446 1.2585724462677237 1.52949264037554
thorax -3.418128195720326 0.6411082964677813 1.581237509545972
lowerneck -15.612608661952706 0.36633983039240825 -2.00390909767984
upperneck 17.82459039470873 0.9661218288125668 -0.5137469045161949
head 8.134873044919395 0.31547469516046384 0.4256103336520922
lclavicle 1.09487614490707e-15 -2.2139249187544354e-15
lhumerus -34.39231623771532 7.430157577667503 81.14631104092052
lradius 12.97332743830073
lwrist -14.488111060516093
lhand -23.66092450429446 -3.79902211039704
lfingers 7.12502
lthumb 3.0050673982067186 26.27407881816595
rclavicle 1.0939476832558638e-15 -2.2156121994795416e-15
rhumerus -22.995986157237525 -16.04934780238782 -78.3387636293053
rradius 21.069346000933603
rwrist 37.32783348151067
rhand -17.33796485258304 -26.62778193479039
rfingers 7.12502
rthumb 7.897626097125139 -56.97045150800593
50
root 0.43357918362826875 16.37143620402592 -17.12735654515735 17.970483709356774 0.23390310478044374 -2.359265686207908
lfemur -37.55657013139295 9.802630539485317 -18.43081347392195
ltibia 51.64448702870823
lfoot -15.868442188674056 5.626227311482215
ltoes -25.820670919015086
rfemur -39.49540651278346 -7.053154495097642 22.599220948007776
rtibia 49.38815600283601
rfoot -25.38633325577846 -5.83775845460767
rtoes -3.3713906674424976
lowerback 7.710666103729323 0.7928925941303869 -0.6676233699786254
upperback 3.0871503412771677 0.9410141668983745 1.5738561609023816
thorax -4.402050896822379 0.49055144255487093 1.6989028175591807
lowerneck -16.10055553189016 0.36061285104509394 -1.9874122600785349
upperneck 16.7600890354825 0.963934885229613 -0.5852718427024513
head 7.929158833909476 0.3168620519570252 0.4139691479692166
lclavicle 1.0946455427914549e-15 -2.214201916763985e-15
lhumerus -34.28262621978057 8.599499759778846 80.57153817779775
lradius 12.437957980139318
lwrist -15.96051290003675
lhand -23.85269287522837 -4.053166267974386
lfingers 7.12502
lthumb 2.9055159241731174 26.098826555227838
rclavicle 1.093900987760005e-15 -2.215670062227882e-15
rhumerus -23.736671153626222 -16.271263148921722 -78.11678155649633
rradius 20.927746222335173
rwrist 37.98665895360423
rhand -17.273877256627227 -26.623188204300437
rfingers 7.12502
rthumb 7.9407586407033595 -56.9668021859977
51
root 0.4125517013189892 16.223198416403218 -17.202421528745997 20.113740902413014 0.9444508006556984 -2.2638521244972725
lfemur -40.522313667574146 9.168317906990174 -18.704645135410072
ltibia 54.78466388717813
lfoot -16.318221035250183 5.931449579640684
ltoes -25.582783474731833
rfemur -42.08048186058778 -6.976160100172141 22.709827284815535
rtibia 51.21957439115397
rfoot -26.556012127393387 -7.394883174251895
rtoes -3.2561192061978534
lowerback 8.005835592007015 0.5143362999105602 -0.8036659381303206
upperback 2.085866899271612 0.5547894409640186 1.674412403300111
thorax -5.560410710597678 0.3156088046113148 1.8823194738024605
lowerneck -16.78159293628535 0.3262068477199981 -1.9740871182409336
upperneck 15.681817468156282 0.9273638442666718 -0.6478630248581545
head 7.7322153327418714 0.3048331255869952 0.40453929200410743
lclavicle 1.094335912853418e-15 -2.2145780411118676e-15
lhumerus -33.7179716189729 9.363981134304757 80.26270679706855
lradius 12.312894691184928
lwrist -16.003288487409474
lhand -24.057625896629816 -4.384955347793426
lfingers 7.12502
lthumb 2.7836506947293027 25.872654680204537
rclavicle 1.093848577348883e-15 -2.2157346634272774e-15
rhumerus -24.48521533901819 -16.56099474928302 -77.9025257863787
rradius 20.737020374068123
rwrist 38.35627386528368
rhand -17.186891598578903 -26.62468200762666
rfingers 7.12502
rthumb 8.062177973369518 -56.947977335692656
